<mxfile host="app.diagrams.net" agent="Mozilla/5.0 (Macintosh; Intel Mac OS X 10_14_6) AppleWebKit/605.1.15 (KHTML, like Gecko) Version/14.1.2 Safari/605.1.15" version="24.8.3">
  <diagram name="Page-1" id="_Bc4aUiWKUxn4jvhNkaS">
    <mxGraphModel dx="2585" dy="1045" grid="1" gridSize="10" guides="1" tooltips="1" connect="1" arrows="1" fold="1" page="1" pageScale="1" pageWidth="850" pageHeight="1100" math="0" shadow="0">
      <root>
        <mxCell id="0" />
        <mxCell id="1" parent="0" />
        <mxCell id="IFTInrkQbc1uJJ71i_6O-141" value="VPC" style="sketch=0;outlineConnect=0;gradientColor=none;html=1;whiteSpace=wrap;fontSize=12;fontStyle=0;shape=mxgraph.aws4.group;grIcon=mxgraph.aws4.group_vpc;strokeColor=#B6BABF;fillColor=none;verticalAlign=top;align=left;spacingLeft=30;fontColor=#B6BABF;dashed=0;" vertex="1" parent="1">
          <mxGeometry x="140" y="1163" width="732" height="410" as="geometry" />
        </mxCell>
        <mxCell id="IFTInrkQbc1uJJ71i_6O-1" value="VPC" style="sketch=0;outlineConnect=0;gradientColor=none;html=1;whiteSpace=wrap;fontSize=12;fontStyle=0;shape=mxgraph.aws4.group;grIcon=mxgraph.aws4.group_vpc;strokeColor=#879196;fillColor=none;verticalAlign=top;align=left;spacingLeft=30;fontColor=#879196;dashed=0;" vertex="1" parent="1">
          <mxGeometry x="160" y="140" width="380" height="220" as="geometry" />
        </mxCell>
        <mxCell id="IFTInrkQbc1uJJ71i_6O-2" value="Region" style="points=[[0,0],[0.25,0],[0.5,0],[0.75,0],[1,0],[1,0.25],[1,0.5],[1,0.75],[1,1],[0.75,1],[0.5,1],[0.25,1],[0,1],[0,0.75],[0,0.5],[0,0.25]];outlineConnect=0;gradientColor=none;html=1;whiteSpace=wrap;fontSize=12;fontStyle=0;container=1;pointerEvents=0;collapsible=0;recursiveResize=0;shape=mxgraph.aws4.group;grIcon=mxgraph.aws4.group_region;strokeColor=#00A4A6;fillColor=none;verticalAlign=top;align=left;spacingLeft=30;fontColor=#147EBA;dashed=1;" vertex="1" parent="1">
          <mxGeometry x="110" y="100" width="450" height="310" as="geometry" />
        </mxCell>
        <mxCell id="IFTInrkQbc1uJJ71i_6O-11" value="" style="sketch=0;points=[[0,0,0],[0.25,0,0],[0.5,0,0],[0.75,0,0],[1,0,0],[0,1,0],[0.25,1,0],[0.5,1,0],[0.75,1,0],[1,1,0],[0,0.25,0],[0,0.5,0],[0,0.75,0],[1,0.25,0],[1,0.5,0],[1,0.75,0]];outlineConnect=0;fontColor=#232F3E;fillColor=#E7157B;strokeColor=#ffffff;dashed=0;verticalLabelPosition=bottom;verticalAlign=top;align=center;html=1;fontSize=12;fontStyle=0;aspect=fixed;shape=mxgraph.aws4.resourceIcon;resIcon=mxgraph.aws4.sns;" vertex="1" parent="IFTInrkQbc1uJJ71i_6O-2">
          <mxGeometry x="221" y="270" width="38" height="38" as="geometry" />
        </mxCell>
        <mxCell id="IFTInrkQbc1uJJ71i_6O-15" value="&lt;font style=&quot;font-size: 9px;&quot;&gt;AMAZON SNS&lt;/font&gt;" style="text;html=1;align=center;verticalAlign=middle;whiteSpace=wrap;rounded=0;" vertex="1" parent="IFTInrkQbc1uJJ71i_6O-2">
          <mxGeometry x="139" y="270" width="82" height="30" as="geometry" />
        </mxCell>
        <mxCell id="IFTInrkQbc1uJJ71i_6O-4" value="Private subnet" style="points=[[0,0],[0.25,0],[0.5,0],[0.75,0],[1,0],[1,0.25],[1,0.5],[1,0.75],[1,1],[0.75,1],[0.5,1],[0.25,1],[0,1],[0,0.75],[0,0.5],[0,0.25]];outlineConnect=0;gradientColor=none;html=1;whiteSpace=wrap;fontSize=12;fontStyle=0;container=1;pointerEvents=0;collapsible=0;recursiveResize=0;shape=mxgraph.aws4.group;grIcon=mxgraph.aws4.group_security_group;grStroke=0;strokeColor=#00A4A6;fillColor=#E6F6F7;verticalAlign=top;align=left;spacingLeft=30;fontColor=#147EBA;dashed=0;" vertex="1" parent="1">
          <mxGeometry x="210" y="210" width="312" height="130" as="geometry" />
        </mxCell>
        <mxCell id="IFTInrkQbc1uJJ71i_6O-5" value="" style="outlineConnect=0;dashed=0;verticalLabelPosition=bottom;verticalAlign=top;align=center;html=1;shape=mxgraph.aws3.ec2;fillColor=#F58534;gradientColor=none;" vertex="1" parent="IFTInrkQbc1uJJ71i_6O-4">
          <mxGeometry x="70" y="44.25" width="36.5" height="41.5" as="geometry" />
        </mxCell>
        <mxCell id="IFTInrkQbc1uJJ71i_6O-8" value="&lt;font style=&quot;font-size: 9px;&quot;&gt;ENI (Private Link)&lt;/font&gt;" style="text;html=1;align=center;verticalAlign=middle;whiteSpace=wrap;rounded=0;" vertex="1" parent="IFTInrkQbc1uJJ71i_6O-4">
          <mxGeometry x="210" y="60" width="82" height="30" as="geometry" />
        </mxCell>
        <mxCell id="IFTInrkQbc1uJJ71i_6O-10" value="&lt;font style=&quot;font-size: 9px;&quot;&gt;EC2 Instance&lt;/font&gt;" style="text;html=1;align=center;verticalAlign=middle;whiteSpace=wrap;rounded=0;" vertex="1" parent="IFTInrkQbc1uJJ71i_6O-4">
          <mxGeometry x="-30" y="50" width="120" height="30" as="geometry" />
        </mxCell>
        <mxCell id="IFTInrkQbc1uJJ71i_6O-6" value="" style="sketch=0;outlineConnect=0;fontColor=#232F3E;gradientColor=none;fillColor=#8C4FFF;strokeColor=none;dashed=0;verticalLabelPosition=bottom;verticalAlign=top;align=center;html=1;fontSize=12;fontStyle=0;aspect=fixed;pointerEvents=1;shape=mxgraph.aws4.endpoints;" vertex="1" parent="1">
          <mxGeometry x="397" y="250" width="28" height="28" as="geometry" />
        </mxCell>
        <mxCell id="IFTInrkQbc1uJJ71i_6O-9" value="&lt;font style=&quot;font-size: 9px;&quot;&gt;VPC Endpoint&lt;/font&gt;&lt;div&gt;&lt;font style=&quot;font-size: 9px;&quot;&gt;&amp;nbsp;(interface)&lt;/font&gt;&lt;/div&gt;" style="text;html=1;align=center;verticalAlign=middle;whiteSpace=wrap;rounded=0;" vertex="1" parent="1">
          <mxGeometry x="425" y="248" width="72" height="30" as="geometry" />
        </mxCell>
        <mxCell id="IFTInrkQbc1uJJ71i_6O-12" value="" style="endArrow=classic;html=1;rounded=0;entryX=0.5;entryY=0;entryDx=0;entryDy=0;entryPerimeter=0;" edge="1" parent="1" source="IFTInrkQbc1uJJ71i_6O-7" target="IFTInrkQbc1uJJ71i_6O-11">
          <mxGeometry width="50" height="50" relative="1" as="geometry">
            <mxPoint x="350" y="310" as="sourcePoint" />
            <mxPoint x="400" y="260" as="targetPoint" />
          </mxGeometry>
        </mxCell>
        <mxCell id="IFTInrkQbc1uJJ71i_6O-14" value="" style="endArrow=classic;html=1;rounded=0;entryX=0;entryY=0.5;entryDx=0;entryDy=0;exitX=0;exitY=1;exitDx=0;exitDy=0;" edge="1" parent="1" target="IFTInrkQbc1uJJ71i_6O-7">
          <mxGeometry width="50" height="50" relative="1" as="geometry">
            <mxPoint x="322" y="278" as="sourcePoint" />
            <mxPoint x="420" y="293" as="targetPoint" />
          </mxGeometry>
        </mxCell>
        <mxCell id="IFTInrkQbc1uJJ71i_6O-7" value="" style="sketch=0;outlineConnect=0;fontColor=#232F3E;gradientColor=none;fillColor=#8C4FFF;strokeColor=none;dashed=0;verticalLabelPosition=bottom;verticalAlign=top;align=center;html=1;fontSize=12;fontStyle=0;aspect=fixed;pointerEvents=1;shape=mxgraph.aws4.elastic_network_interface;" vertex="1" parent="1">
          <mxGeometry x="402" y="280" width="18" height="18" as="geometry" />
        </mxCell>
        <mxCell id="IFTInrkQbc1uJJ71i_6O-16" value="VPC" style="sketch=0;outlineConnect=0;gradientColor=none;html=1;whiteSpace=wrap;fontSize=12;fontStyle=0;shape=mxgraph.aws4.group;grIcon=mxgraph.aws4.group_vpc;strokeColor=#879196;fillColor=none;verticalAlign=top;align=left;spacingLeft=30;fontColor=#879196;dashed=0;" vertex="1" parent="1">
          <mxGeometry x="790" y="110" width="380" height="220" as="geometry" />
        </mxCell>
        <mxCell id="IFTInrkQbc1uJJ71i_6O-17" value="Region" style="points=[[0,0],[0.25,0],[0.5,0],[0.75,0],[1,0],[1,0.25],[1,0.5],[1,0.75],[1,1],[0.75,1],[0.5,1],[0.25,1],[0,1],[0,0.75],[0,0.5],[0,0.25]];outlineConnect=0;gradientColor=none;html=1;whiteSpace=wrap;fontSize=12;fontStyle=0;container=1;pointerEvents=0;collapsible=0;recursiveResize=0;shape=mxgraph.aws4.group;grIcon=mxgraph.aws4.group_region;strokeColor=#00A4A6;fillColor=none;verticalAlign=top;align=left;spacingLeft=30;fontColor=#147EBA;dashed=1;" vertex="1" parent="1">
          <mxGeometry x="740" y="70" width="450" height="310" as="geometry" />
        </mxCell>
        <mxCell id="IFTInrkQbc1uJJ71i_6O-19" value="&lt;font style=&quot;font-size: 9px;&quot;&gt;AMAZON S3&lt;/font&gt;" style="text;html=1;align=center;verticalAlign=middle;whiteSpace=wrap;rounded=0;" vertex="1" parent="IFTInrkQbc1uJJ71i_6O-17">
          <mxGeometry x="139" y="270" width="82" height="30" as="geometry" />
        </mxCell>
        <mxCell id="IFTInrkQbc1uJJ71i_6O-31" value="" style="sketch=0;outlineConnect=0;fontColor=#232F3E;gradientColor=none;fillColor=#7AA116;strokeColor=none;dashed=0;verticalLabelPosition=bottom;verticalAlign=top;align=center;html=1;fontSize=12;fontStyle=0;aspect=fixed;pointerEvents=1;shape=mxgraph.aws4.bucket;" vertex="1" parent="IFTInrkQbc1uJJ71i_6O-17">
          <mxGeometry x="212.5" y="272" width="25" height="26" as="geometry" />
        </mxCell>
        <mxCell id="IFTInrkQbc1uJJ71i_6O-32" value="" style="sketch=0;points=[[0,0,0],[0.25,0,0],[0.5,0,0],[0.75,0,0],[1,0,0],[0,1,0],[0.25,1,0],[0.5,1,0],[0.75,1,0],[1,1,0],[0,0.25,0],[0,0.5,0],[0,0.75,0],[1,0.25,0],[1,0.5,0],[1,0.75,0]];outlineConnect=0;fontColor=#232F3E;fillColor=#C925D1;strokeColor=#ffffff;dashed=0;verticalLabelPosition=bottom;verticalAlign=top;align=center;html=1;fontSize=12;fontStyle=0;aspect=fixed;shape=mxgraph.aws4.resourceIcon;resIcon=mxgraph.aws4.dynamodb;" vertex="1" parent="IFTInrkQbc1uJJ71i_6O-17">
          <mxGeometry x="270" y="270" width="28" height="28" as="geometry" />
        </mxCell>
        <mxCell id="IFTInrkQbc1uJJ71i_6O-33" value="&lt;font style=&quot;font-size: 9px;&quot;&gt;Dynamo DB&lt;/font&gt;" style="text;html=1;align=center;verticalAlign=middle;whiteSpace=wrap;rounded=0;" vertex="1" parent="IFTInrkQbc1uJJ71i_6O-17">
          <mxGeometry x="290" y="268" width="82" height="30" as="geometry" />
        </mxCell>
        <mxCell id="IFTInrkQbc1uJJ71i_6O-20" value="Private subnet" style="points=[[0,0],[0.25,0],[0.5,0],[0.75,0],[1,0],[1,0.25],[1,0.5],[1,0.75],[1,1],[0.75,1],[0.5,1],[0.25,1],[0,1],[0,0.75],[0,0.5],[0,0.25]];outlineConnect=0;gradientColor=none;html=1;whiteSpace=wrap;fontSize=12;fontStyle=0;container=1;pointerEvents=0;collapsible=0;recursiveResize=0;shape=mxgraph.aws4.group;grIcon=mxgraph.aws4.group_security_group;grStroke=0;strokeColor=#00A4A6;fillColor=#E6F6F7;verticalAlign=top;align=left;spacingLeft=30;fontColor=#147EBA;dashed=0;" vertex="1" parent="1">
          <mxGeometry x="840" y="180" width="312" height="130" as="geometry" />
        </mxCell>
        <mxCell id="IFTInrkQbc1uJJ71i_6O-21" value="" style="outlineConnect=0;dashed=0;verticalLabelPosition=bottom;verticalAlign=top;align=center;html=1;shape=mxgraph.aws3.ec2;fillColor=#F58534;gradientColor=none;" vertex="1" parent="IFTInrkQbc1uJJ71i_6O-20">
          <mxGeometry x="70" y="44.25" width="36.5" height="41.5" as="geometry" />
        </mxCell>
        <mxCell id="IFTInrkQbc1uJJ71i_6O-23" value="&lt;font style=&quot;font-size: 9px;&quot;&gt;EC2 Instance&lt;/font&gt;" style="text;html=1;align=center;verticalAlign=middle;whiteSpace=wrap;rounded=0;" vertex="1" parent="IFTInrkQbc1uJJ71i_6O-20">
          <mxGeometry x="-30" y="50" width="120" height="30" as="geometry" />
        </mxCell>
        <mxCell id="IFTInrkQbc1uJJ71i_6O-24" value="" style="sketch=0;outlineConnect=0;fontColor=#232F3E;gradientColor=none;fillColor=#8C4FFF;strokeColor=none;dashed=0;verticalLabelPosition=bottom;verticalAlign=top;align=center;html=1;fontSize=12;fontStyle=0;aspect=fixed;pointerEvents=1;shape=mxgraph.aws4.endpoints;" vertex="1" parent="1">
          <mxGeometry x="1032" y="248" width="28" height="28" as="geometry" />
        </mxCell>
        <mxCell id="IFTInrkQbc1uJJ71i_6O-25" value="&lt;font style=&quot;font-size: 9px;&quot;&gt;VPC Endpoint&lt;/font&gt;&lt;div&gt;&lt;font style=&quot;font-size: 9px;&quot;&gt;&amp;nbsp;(Gateway)&lt;/font&gt;&lt;/div&gt;" style="text;html=1;align=center;verticalAlign=middle;whiteSpace=wrap;rounded=0;" vertex="1" parent="1">
          <mxGeometry x="1055" y="246" width="72" height="30" as="geometry" />
        </mxCell>
        <mxCell id="IFTInrkQbc1uJJ71i_6O-26" value="" style="endArrow=classic;html=1;rounded=0;" edge="1" parent="1" target="IFTInrkQbc1uJJ71i_6O-31">
          <mxGeometry width="50" height="50" relative="1" as="geometry">
            <mxPoint x="1040" y="280" as="sourcePoint" />
            <mxPoint x="980" y="340" as="targetPoint" />
          </mxGeometry>
        </mxCell>
        <mxCell id="IFTInrkQbc1uJJ71i_6O-27" value="" style="endArrow=classic;html=1;rounded=0;entryX=0;entryY=0.5;entryDx=0;entryDy=0;exitX=0;exitY=1;exitDx=0;exitDy=0;" edge="1" parent="1">
          <mxGeometry width="50" height="50" relative="1" as="geometry">
            <mxPoint x="952" y="248" as="sourcePoint" />
            <mxPoint x="1032.0002045315093" y="259" as="targetPoint" />
          </mxGeometry>
        </mxCell>
        <mxCell id="IFTInrkQbc1uJJ71i_6O-29" value="VPC Endpoint Interface" style="text;html=1;align=center;verticalAlign=middle;whiteSpace=wrap;rounded=0;fontStyle=1" vertex="1" parent="1">
          <mxGeometry x="130" y="60" width="240" height="30" as="geometry" />
        </mxCell>
        <mxCell id="IFTInrkQbc1uJJ71i_6O-30" value="VPC Endpoint Gateway" style="text;html=1;align=center;verticalAlign=middle;whiteSpace=wrap;rounded=0;fontStyle=1" vertex="1" parent="1">
          <mxGeometry x="787" y="40" width="240" height="30" as="geometry" />
        </mxCell>
        <mxCell id="IFTInrkQbc1uJJ71i_6O-34" value="" style="endArrow=classic;html=1;rounded=0;" edge="1" parent="1" target="IFTInrkQbc1uJJ71i_6O-32">
          <mxGeometry width="50" height="50" relative="1" as="geometry">
            <mxPoint x="1040" y="280" as="sourcePoint" />
            <mxPoint x="990" y="350" as="targetPoint" />
          </mxGeometry>
        </mxCell>
        <mxCell id="IFTInrkQbc1uJJ71i_6O-36" value="VPC" style="sketch=0;outlineConnect=0;gradientColor=none;html=1;whiteSpace=wrap;fontSize=12;fontStyle=0;shape=mxgraph.aws4.group;grIcon=mxgraph.aws4.group_vpc;strokeColor=#879196;fillColor=none;verticalAlign=top;align=left;spacingLeft=30;fontColor=#879196;dashed=0;" vertex="1" parent="1">
          <mxGeometry x="202" y="610" width="380" height="190" as="geometry" />
        </mxCell>
        <mxCell id="IFTInrkQbc1uJJ71i_6O-41" value="Private subnet" style="points=[[0,0],[0.25,0],[0.5,0],[0.75,0],[1,0],[1,0.25],[1,0.5],[1,0.75],[1,1],[0.75,1],[0.5,1],[0.25,1],[0,1],[0,0.75],[0,0.5],[0,0.25]];outlineConnect=0;gradientColor=none;html=1;whiteSpace=wrap;fontSize=12;fontStyle=0;container=1;pointerEvents=0;collapsible=0;recursiveResize=0;shape=mxgraph.aws4.group;grIcon=mxgraph.aws4.group_security_group;grStroke=0;strokeColor=#00A4A6;fillColor=#E6F6F7;verticalAlign=top;align=left;spacingLeft=30;fontColor=#147EBA;dashed=0;" vertex="1" parent="1">
          <mxGeometry x="250" y="630" width="314" height="140" as="geometry" />
        </mxCell>
        <mxCell id="IFTInrkQbc1uJJ71i_6O-62" value="Region" style="points=[[0,0],[0.25,0],[0.5,0],[0.75,0],[1,0],[1,0.25],[1,0.5],[1,0.75],[1,1],[0.75,1],[0.5,1],[0.25,1],[0,1],[0,0.75],[0,0.5],[0,0.25]];outlineConnect=0;gradientColor=none;html=1;whiteSpace=wrap;fontSize=12;fontStyle=0;container=1;pointerEvents=0;collapsible=0;recursiveResize=0;shape=mxgraph.aws4.group;grIcon=mxgraph.aws4.group_region;strokeColor=#00A4A6;fillColor=none;verticalAlign=top;align=left;spacingLeft=30;fontColor=#147EBA;dashed=1;" vertex="1" parent="1">
          <mxGeometry x="160" y="570" width="450" height="360" as="geometry" />
        </mxCell>
        <mxCell id="IFTInrkQbc1uJJ71i_6O-77" style="edgeStyle=orthogonalEdgeStyle;rounded=0;orthogonalLoop=1;jettySize=auto;html=1;" edge="1" parent="IFTInrkQbc1uJJ71i_6O-62" source="IFTInrkQbc1uJJ71i_6O-71" target="IFTInrkQbc1uJJ71i_6O-73">
          <mxGeometry relative="1" as="geometry" />
        </mxCell>
        <mxCell id="IFTInrkQbc1uJJ71i_6O-71" value="" style="outlineConnect=0;dashed=0;verticalLabelPosition=bottom;verticalAlign=top;align=center;html=1;shape=mxgraph.aws3.ec2;fillColor=#F58534;gradientColor=none;" vertex="1" parent="IFTInrkQbc1uJJ71i_6O-62">
          <mxGeometry x="309.88" y="106.75" width="44.25" height="46.5" as="geometry" />
        </mxCell>
        <mxCell id="IFTInrkQbc1uJJ71i_6O-81" style="edgeStyle=orthogonalEdgeStyle;rounded=0;orthogonalLoop=1;jettySize=auto;html=1;" edge="1" parent="IFTInrkQbc1uJJ71i_6O-62" source="IFTInrkQbc1uJJ71i_6O-73" target="IFTInrkQbc1uJJ71i_6O-79">
          <mxGeometry relative="1" as="geometry" />
        </mxCell>
        <mxCell id="IFTInrkQbc1uJJ71i_6O-73" value="" style="sketch=0;outlineConnect=0;fontColor=#232F3E;gradientColor=none;fillColor=#8C4FFF;strokeColor=none;dashed=0;verticalLabelPosition=bottom;verticalAlign=top;align=center;html=1;fontSize=12;fontStyle=0;aspect=fixed;pointerEvents=1;shape=mxgraph.aws4.endpoints;" vertex="1" parent="IFTInrkQbc1uJJ71i_6O-62">
          <mxGeometry x="308" y="242" width="48" height="48" as="geometry" />
        </mxCell>
        <mxCell id="IFTInrkQbc1uJJ71i_6O-74" value="&lt;font style=&quot;font-size: 9px;&quot;&gt;Gateway Endpoint&lt;/font&gt;" style="text;html=1;align=center;verticalAlign=middle;whiteSpace=wrap;rounded=0;" vertex="1" parent="IFTInrkQbc1uJJ71i_6O-62">
          <mxGeometry x="352.25" y="251" width="82" height="30" as="geometry" />
        </mxCell>
        <mxCell id="IFTInrkQbc1uJJ71i_6O-75" value="&lt;font style=&quot;font-size: 9px;&quot;&gt;Interface Endpoint&lt;/font&gt;" style="text;html=1;align=center;verticalAlign=middle;whiteSpace=wrap;rounded=0;" vertex="1" parent="IFTInrkQbc1uJJ71i_6O-62">
          <mxGeometry x="100" y="153.25" width="82" height="30" as="geometry" />
        </mxCell>
        <mxCell id="IFTInrkQbc1uJJ71i_6O-76" value="&lt;font style=&quot;font-size: 9px;&quot;&gt;In apps VPC&lt;/font&gt;" style="text;html=1;align=center;verticalAlign=middle;whiteSpace=wrap;rounded=0;" vertex="1" parent="IFTInrkQbc1uJJ71i_6O-62">
          <mxGeometry x="256" y="115" width="52" height="30" as="geometry" />
        </mxCell>
        <mxCell id="IFTInrkQbc1uJJ71i_6O-83" style="edgeStyle=orthogonalEdgeStyle;rounded=0;orthogonalLoop=1;jettySize=auto;html=1;" edge="1" parent="IFTInrkQbc1uJJ71i_6O-62" source="IFTInrkQbc1uJJ71i_6O-78" target="IFTInrkQbc1uJJ71i_6O-79">
          <mxGeometry relative="1" as="geometry" />
        </mxCell>
        <mxCell id="IFTInrkQbc1uJJ71i_6O-78" value="" style="sketch=0;points=[[0,0,0],[0.25,0,0],[0.5,0,0],[0.75,0,0],[1,0,0],[0,1,0],[0.25,1,0],[0.5,1,0],[0.75,1,0],[1,1,0],[0,0.25,0],[0,0.5,0],[0,0.75,0],[1,0.25,0],[1,0.5,0],[1,0.75,0]];outlineConnect=0;fontColor=#232F3E;fillColor=#8C4FFF;strokeColor=#ffffff;dashed=0;verticalLabelPosition=bottom;verticalAlign=top;align=center;html=1;fontSize=12;fontStyle=0;aspect=fixed;shape=mxgraph.aws4.resourceIcon;resIcon=mxgraph.aws4.vpc_privatelink;" vertex="1" parent="IFTInrkQbc1uJJ71i_6O-62">
          <mxGeometry x="110" y="247" width="38" height="38" as="geometry" />
        </mxCell>
        <mxCell id="IFTInrkQbc1uJJ71i_6O-37" value="&lt;font style=&quot;font-size: 9px;&quot;&gt;Private Link&lt;/font&gt;" style="text;html=1;align=center;verticalAlign=middle;whiteSpace=wrap;rounded=0;" vertex="1" parent="IFTInrkQbc1uJJ71i_6O-62">
          <mxGeometry x="88" y="280" width="82" height="30" as="geometry" />
        </mxCell>
        <mxCell id="IFTInrkQbc1uJJ71i_6O-79" value="" style="sketch=0;outlineConnect=0;fontColor=#232F3E;gradientColor=none;fillColor=#7AA116;strokeColor=none;dashed=0;verticalLabelPosition=bottom;verticalAlign=top;align=center;html=1;fontSize=12;fontStyle=0;aspect=fixed;pointerEvents=1;shape=mxgraph.aws4.bucket;" vertex="1" parent="IFTInrkQbc1uJJ71i_6O-62">
          <mxGeometry x="220" y="247.00000000000006" width="45" height="46.8" as="geometry" />
        </mxCell>
        <mxCell id="IFTInrkQbc1uJJ71i_6O-80" value="&lt;font style=&quot;font-size: 9px;&quot;&gt;S3&lt;/font&gt;" style="text;html=1;align=center;verticalAlign=middle;whiteSpace=wrap;rounded=0;" vertex="1" parent="IFTInrkQbc1uJJ71i_6O-62">
          <mxGeometry x="201.5" y="285" width="82" height="30" as="geometry" />
        </mxCell>
        <mxCell id="IFTInrkQbc1uJJ71i_6O-82" style="edgeStyle=orthogonalEdgeStyle;rounded=0;orthogonalLoop=1;jettySize=auto;html=1;entryX=0.5;entryY=0;entryDx=0;entryDy=0;entryPerimeter=0;" edge="1" parent="IFTInrkQbc1uJJ71i_6O-62" source="IFTInrkQbc1uJJ71i_6O-75" target="IFTInrkQbc1uJJ71i_6O-78">
          <mxGeometry relative="1" as="geometry" />
        </mxCell>
        <mxCell id="IFTInrkQbc1uJJ71i_6O-85" value="" style="sketch=0;points=[[0,0,0],[0.25,0,0],[0.5,0,0],[0.75,0,0],[1,0,0],[0,1,0],[0.25,1,0],[0.5,1,0],[0.75,1,0],[1,1,0],[0,0.25,0],[0,0.5,0],[0,0.75,0],[1,0.25,0],[1,0.5,0],[1,0.75,0]];outlineConnect=0;fontColor=#232F3E;fillColor=#8C4FFF;strokeColor=#ffffff;dashed=0;verticalLabelPosition=bottom;verticalAlign=top;align=center;html=1;fontSize=12;fontStyle=0;aspect=fixed;shape=mxgraph.aws4.resourceIcon;resIcon=mxgraph.aws4.direct_connect;" vertex="1" parent="IFTInrkQbc1uJJ71i_6O-62">
          <mxGeometry x="245.5" y="-20" width="38" height="38" as="geometry" />
        </mxCell>
        <mxCell id="IFTInrkQbc1uJJ71i_6O-86" value="&lt;font style=&quot;font-size: 9px;&quot;&gt;S2S VPN&lt;/font&gt;" style="text;html=1;align=center;verticalAlign=middle;whiteSpace=wrap;rounded=0;" vertex="1" parent="IFTInrkQbc1uJJ71i_6O-62">
          <mxGeometry x="88" y="10" width="82" height="30" as="geometry" />
        </mxCell>
        <mxCell id="IFTInrkQbc1uJJ71i_6O-87" value="&lt;font style=&quot;font-size: 9px;&quot;&gt;Direct Connect&lt;/font&gt;" style="text;html=1;align=center;verticalAlign=middle;whiteSpace=wrap;rounded=0;" vertex="1" parent="IFTInrkQbc1uJJ71i_6O-62">
          <mxGeometry x="220" y="10" width="82" height="30" as="geometry" />
        </mxCell>
        <mxCell id="IFTInrkQbc1uJJ71i_6O-72" value="" style="sketch=0;outlineConnect=0;fontColor=#232F3E;gradientColor=none;fillColor=#8C4FFF;strokeColor=none;dashed=0;verticalLabelPosition=bottom;verticalAlign=top;align=center;html=1;fontSize=12;fontStyle=0;aspect=fixed;pointerEvents=1;shape=mxgraph.aws4.endpoints;" vertex="1" parent="1">
          <mxGeometry x="280" y="676" width="48" height="48" as="geometry" />
        </mxCell>
        <mxCell id="IFTInrkQbc1uJJ71i_6O-84" value="" style="sketch=0;points=[[0,0,0],[0.25,0,0],[0.5,0,0],[0.75,0,0],[1,0,0],[0,1,0],[0.25,1,0],[0.5,1,0],[0.75,1,0],[1,1,0],[0,0.25,0],[0,0.5,0],[0,0.75,0],[1,0.25,0],[1,0.5,0],[1,0.75,0]];outlineConnect=0;fontColor=#232F3E;fillColor=#8C4FFF;strokeColor=#ffffff;dashed=0;verticalLabelPosition=bottom;verticalAlign=top;align=center;html=1;fontSize=12;fontStyle=0;aspect=fixed;shape=mxgraph.aws4.resourceIcon;resIcon=mxgraph.aws4.site_to_site_vpn;" vertex="1" parent="1">
          <mxGeometry x="270" y="550" width="40" height="40" as="geometry" />
        </mxCell>
        <mxCell id="IFTInrkQbc1uJJ71i_6O-89" style="edgeStyle=orthogonalEdgeStyle;rounded=0;orthogonalLoop=1;jettySize=auto;html=1;" edge="1" parent="1" source="IFTInrkQbc1uJJ71i_6O-87" target="IFTInrkQbc1uJJ71i_6O-72">
          <mxGeometry relative="1" as="geometry">
            <Array as="points">
              <mxPoint x="421" y="620" />
              <mxPoint x="304" y="620" />
            </Array>
          </mxGeometry>
        </mxCell>
        <mxCell id="IFTInrkQbc1uJJ71i_6O-91" style="edgeStyle=orthogonalEdgeStyle;rounded=0;orthogonalLoop=1;jettySize=auto;html=1;" edge="1" parent="1" source="IFTInrkQbc1uJJ71i_6O-86" target="IFTInrkQbc1uJJ71i_6O-72">
          <mxGeometry relative="1" as="geometry">
            <Array as="points">
              <mxPoint x="289" y="620" />
              <mxPoint x="304" y="620" />
            </Array>
          </mxGeometry>
        </mxCell>
        <mxCell id="IFTInrkQbc1uJJ71i_6O-92" value="Users" style="sketch=0;outlineConnect=0;fontColor=#232F3E;gradientColor=none;strokeColor=#232F3E;fillColor=#ffffff;dashed=0;verticalLabelPosition=bottom;verticalAlign=top;align=center;html=1;fontSize=12;fontStyle=0;aspect=fixed;shape=mxgraph.aws4.resourceIcon;resIcon=mxgraph.aws4.users;" vertex="1" parent="1">
          <mxGeometry x="340" y="450" width="30" height="30" as="geometry" />
        </mxCell>
        <mxCell id="IFTInrkQbc1uJJ71i_6O-93" style="edgeStyle=orthogonalEdgeStyle;rounded=0;orthogonalLoop=1;jettySize=auto;html=1;entryX=0.5;entryY=0;entryDx=0;entryDy=0;entryPerimeter=0;" edge="1" parent="1" target="IFTInrkQbc1uJJ71i_6O-84">
          <mxGeometry relative="1" as="geometry">
            <mxPoint x="355.0588235294117" y="510" as="sourcePoint" />
            <Array as="points">
              <mxPoint x="355" y="530" />
              <mxPoint x="290" y="530" />
            </Array>
          </mxGeometry>
        </mxCell>
        <mxCell id="IFTInrkQbc1uJJ71i_6O-94" style="edgeStyle=orthogonalEdgeStyle;rounded=0;orthogonalLoop=1;jettySize=auto;html=1;entryX=0.5;entryY=0;entryDx=0;entryDy=0;entryPerimeter=0;" edge="1" parent="1" target="IFTInrkQbc1uJJ71i_6O-85">
          <mxGeometry relative="1" as="geometry">
            <mxPoint x="355.0588235294117" y="510" as="sourcePoint" />
            <Array as="points">
              <mxPoint x="355" y="530" />
              <mxPoint x="424" y="530" />
            </Array>
          </mxGeometry>
        </mxCell>
        <mxCell id="IFTInrkQbc1uJJ71i_6O-95" value="When to user VPC Interface" style="text;html=1;align=center;verticalAlign=middle;whiteSpace=wrap;rounded=0;" vertex="1" parent="1">
          <mxGeometry x="110" y="490" width="230" height="30" as="geometry" />
        </mxCell>
        <mxCell id="IFTInrkQbc1uJJ71i_6O-109" value="&lt;font style=&quot;font-size: 20px;&quot;&gt;Site to Site VPN&lt;/font&gt;" style="text;html=1;align=center;verticalAlign=middle;whiteSpace=wrap;rounded=0;fontStyle=1" vertex="1" parent="1">
          <mxGeometry x="188" y="1110" width="240" height="30" as="geometry" />
        </mxCell>
        <mxCell id="IFTInrkQbc1uJJ71i_6O-116" value="Router" style="sketch=0;outlineConnect=0;fontColor=#232F3E;gradientColor=none;fillColor=#8C4FFF;strokeColor=none;dashed=0;verticalLabelPosition=bottom;verticalAlign=top;align=center;html=1;fontSize=12;fontStyle=0;aspect=fixed;pointerEvents=1;shape=mxgraph.aws4.router;" vertex="1" parent="1">
          <mxGeometry x="260" y="1228" width="40" height="40" as="geometry" />
        </mxCell>
        <mxCell id="IFTInrkQbc1uJJ71i_6O-117" value="NACL" style="sketch=0;outlineConnect=0;fontColor=#232F3E;gradientColor=none;fillColor=#8C4FFF;strokeColor=none;dashed=0;verticalLabelPosition=bottom;verticalAlign=top;align=center;html=1;fontSize=12;fontStyle=0;aspect=fixed;pointerEvents=1;shape=mxgraph.aws4.network_access_control_list;" vertex="1" parent="1">
          <mxGeometry x="397" y="1190" width="38" height="38" as="geometry" />
        </mxCell>
        <mxCell id="IFTInrkQbc1uJJ71i_6O-118" value="NACL" style="sketch=0;outlineConnect=0;fontColor=#232F3E;gradientColor=none;fillColor=#8C4FFF;strokeColor=none;dashed=0;verticalLabelPosition=bottom;verticalAlign=top;align=center;html=1;fontSize=12;fontStyle=0;aspect=fixed;pointerEvents=1;shape=mxgraph.aws4.network_access_control_list;" vertex="1" parent="1">
          <mxGeometry x="650" y="1190" width="38" height="38" as="geometry" />
        </mxCell>
        <mxCell id="IFTInrkQbc1uJJ71i_6O-119" value="Public subnet" style="points=[[0,0],[0.25,0],[0.5,0],[0.75,0],[1,0],[1,0.25],[1,0.5],[1,0.75],[1,1],[0.75,1],[0.5,1],[0.25,1],[0,1],[0,0.75],[0,0.5],[0,0.25]];outlineConnect=0;gradientColor=none;html=1;whiteSpace=wrap;fontSize=12;fontStyle=0;container=1;pointerEvents=0;collapsible=0;recursiveResize=0;shape=mxgraph.aws4.group;grIcon=mxgraph.aws4.group_security_group;grStroke=0;strokeColor=#7AA116;fillColor=#F2F6E8;verticalAlign=top;align=left;spacingLeft=30;fontColor=#248814;dashed=0;" vertex="1" parent="1">
          <mxGeometry x="340" y="1260" width="170" height="260" as="geometry" />
        </mxCell>
        <mxCell id="IFTInrkQbc1uJJ71i_6O-113" value="Security group" style="fillColor=none;strokeColor=#DD3522;verticalAlign=top;fontStyle=0;fontColor=#DD3522;whiteSpace=wrap;html=1;" vertex="1" parent="IFTInrkQbc1uJJ71i_6O-119">
          <mxGeometry x="21.5" y="130" width="130" height="110" as="geometry" />
        </mxCell>
        <mxCell id="IFTInrkQbc1uJJ71i_6O-114" value="Public EC2 Instance" style="outlineConnect=0;dashed=0;verticalLabelPosition=bottom;verticalAlign=top;align=center;html=1;shape=mxgraph.aws3.ec2;fillColor=#F58534;gradientColor=none;" vertex="1" parent="IFTInrkQbc1uJJ71i_6O-119">
          <mxGeometry x="61.5" y="163.5" width="36.5" height="43" as="geometry" />
        </mxCell>
        <mxCell id="IFTInrkQbc1uJJ71i_6O-115" value="NAT GATEWAY" style="sketch=0;outlineConnect=0;fontColor=#232F3E;gradientColor=none;fillColor=#8C4FFF;strokeColor=none;dashed=0;verticalLabelPosition=bottom;verticalAlign=top;align=center;html=1;fontSize=12;fontStyle=0;aspect=fixed;pointerEvents=1;shape=mxgraph.aws4.nat_gateway;" vertex="1" parent="IFTInrkQbc1uJJ71i_6O-119">
          <mxGeometry x="54" y="30" width="44" height="44" as="geometry" />
        </mxCell>
        <mxCell id="IFTInrkQbc1uJJ71i_6O-121" value="Route Table" style="sketch=0;outlineConnect=0;fontColor=#232F3E;gradientColor=none;fillColor=#8C4FFF;strokeColor=none;dashed=0;verticalLabelPosition=bottom;verticalAlign=top;align=center;html=1;fontSize=12;fontStyle=0;aspect=fixed;pointerEvents=1;shape=mxgraph.aws4.route_table;" vertex="1" parent="IFTInrkQbc1uJJ71i_6O-119">
          <mxGeometry x="-20" y="74" width="48" height="46.77" as="geometry" />
        </mxCell>
        <mxCell id="IFTInrkQbc1uJJ71i_6O-126" value="" style="rounded=0;whiteSpace=wrap;html=1;dashed=1;fillColor=none;" vertex="1" parent="1">
          <mxGeometry x="570" y="1210" width="220" height="330" as="geometry" />
        </mxCell>
        <mxCell id="IFTInrkQbc1uJJ71i_6O-127" value="Private subnet" style="points=[[0,0],[0.25,0],[0.5,0],[0.75,0],[1,0],[1,0.25],[1,0.5],[1,0.75],[1,1],[0.75,1],[0.5,1],[0.25,1],[0,1],[0,0.75],[0,0.5],[0,0.25]];outlineConnect=0;gradientColor=none;html=1;whiteSpace=wrap;fontSize=12;fontStyle=0;container=1;pointerEvents=0;collapsible=0;recursiveResize=0;shape=mxgraph.aws4.group;grIcon=mxgraph.aws4.group_security_group;grStroke=0;strokeColor=#00A4A6;fillColor=#E6F6F7;verticalAlign=top;align=left;spacingLeft=30;fontColor=#147EBA;dashed=0;" vertex="1" parent="1">
          <mxGeometry x="600" y="1260" width="178" height="240" as="geometry" />
        </mxCell>
        <mxCell id="IFTInrkQbc1uJJ71i_6O-131" value="Security group" style="fillColor=none;strokeColor=#DD3522;verticalAlign=top;fontStyle=0;fontColor=#DD3522;whiteSpace=wrap;html=1;" vertex="1" parent="IFTInrkQbc1uJJ71i_6O-127">
          <mxGeometry x="40" y="20.77" width="118" height="89.23" as="geometry" />
        </mxCell>
        <mxCell id="IFTInrkQbc1uJJ71i_6O-133" value="Private EC2 Instance" style="outlineConnect=0;dashed=0;verticalLabelPosition=bottom;verticalAlign=top;align=center;html=1;shape=mxgraph.aws3.ec2;fillColor=#F58534;gradientColor=none;" vertex="1" parent="IFTInrkQbc1uJJ71i_6O-127">
          <mxGeometry x="80.75" y="43.88000000000011" width="36.5" height="43" as="geometry" />
        </mxCell>
        <mxCell id="IFTInrkQbc1uJJ71i_6O-165" value="" style="endArrow=classic;html=1;rounded=0;" edge="1" parent="IFTInrkQbc1uJJ71i_6O-127" target="IFTInrkQbc1uJJ71i_6O-134">
          <mxGeometry width="50" height="50" relative="1" as="geometry">
            <mxPoint x="120" y="68" as="sourcePoint" />
            <mxPoint x="228" y="240" as="targetPoint" />
          </mxGeometry>
        </mxCell>
        <mxCell id="IFTInrkQbc1uJJ71i_6O-128" value="" style="rounded=0;whiteSpace=wrap;html=1;dashed=1;fillColor=none;" vertex="1" parent="1">
          <mxGeometry x="310" y="1210" width="220" height="330" as="geometry" />
        </mxCell>
        <mxCell id="IFTInrkQbc1uJJ71i_6O-129" value="Route Table" style="sketch=0;outlineConnect=0;fontColor=#232F3E;gradientColor=none;fillColor=#8C4FFF;strokeColor=none;dashed=0;verticalLabelPosition=bottom;verticalAlign=top;align=center;html=1;fontSize=12;fontStyle=0;aspect=fixed;pointerEvents=1;shape=mxgraph.aws4.route_table;" vertex="1" parent="1">
          <mxGeometry x="580" y="1344" width="48" height="46.77" as="geometry" />
        </mxCell>
        <mxCell id="IFTInrkQbc1uJJ71i_6O-130" value="Security group" style="fillColor=none;strokeColor=#DD3522;verticalAlign=top;fontStyle=0;fontColor=#DD3522;whiteSpace=wrap;html=1;" vertex="1" parent="1">
          <mxGeometry x="640" y="1390" width="122" height="100" as="geometry" />
        </mxCell>
        <mxCell id="IFTInrkQbc1uJJ71i_6O-132" value="Private EC2 Instance" style="outlineConnect=0;dashed=0;verticalLabelPosition=bottom;verticalAlign=top;align=center;html=1;shape=mxgraph.aws3.ec2;fillColor=#F58534;gradientColor=none;" vertex="1" parent="1">
          <mxGeometry x="680" y="1420" width="36.5" height="43" as="geometry" />
        </mxCell>
        <mxCell id="IFTInrkQbc1uJJ71i_6O-162" style="edgeStyle=orthogonalEdgeStyle;rounded=0;orthogonalLoop=1;jettySize=auto;html=1;" edge="1" parent="1" source="IFTInrkQbc1uJJ71i_6O-134" target="IFTInrkQbc1uJJ71i_6O-161">
          <mxGeometry relative="1" as="geometry" />
        </mxCell>
        <mxCell id="IFTInrkQbc1uJJ71i_6O-134" value="VPC Endpoint&lt;div&gt;(Gateway)&lt;/div&gt;" style="sketch=0;outlineConnect=0;fontColor=#232F3E;gradientColor=none;fillColor=#8C4FFF;strokeColor=none;dashed=0;verticalLabelPosition=bottom;verticalAlign=top;align=center;html=1;fontSize=12;fontStyle=0;aspect=fixed;pointerEvents=1;shape=mxgraph.aws4.endpoints;" vertex="1" parent="1">
          <mxGeometry x="824" y="1366" width="48" height="48" as="geometry" />
        </mxCell>
        <mxCell id="IFTInrkQbc1uJJ71i_6O-137" value="Corporate data center" style="points=[[0,0],[0.25,0],[0.5,0],[0.75,0],[1,0],[1,0.25],[1,0.5],[1,0.75],[1,1],[0.75,1],[0.5,1],[0.25,1],[0,1],[0,0.75],[0,0.5],[0,0.25]];outlineConnect=0;gradientColor=none;html=1;whiteSpace=wrap;fontSize=12;fontStyle=0;container=1;pointerEvents=0;collapsible=0;recursiveResize=0;shape=mxgraph.aws4.group;grIcon=mxgraph.aws4.group_corporate_data_center;strokeColor=#7D8998;fillColor=none;verticalAlign=top;align=left;spacingLeft=30;fontColor=#5A6C86;dashed=0;" vertex="1" parent="1">
          <mxGeometry x="995" y="1250" width="175" height="295" as="geometry" />
        </mxCell>
        <mxCell id="IFTInrkQbc1uJJ71i_6O-138" value="" style="image;points=[];aspect=fixed;html=1;align=center;shadow=0;dashed=0;image=img/lib/allied_telesis/computer_and_terminals/Server_Desktop.svg;" vertex="1" parent="IFTInrkQbc1uJJ71i_6O-137">
          <mxGeometry x="55" y="98.44" width="60" height="76.06" as="geometry" />
        </mxCell>
        <mxCell id="IFTInrkQbc1uJJ71i_6O-139" value="" style="sketch=0;outlineConnect=0;fontColor=#232F3E;gradientColor=none;fillColor=#8C4FFF;strokeColor=none;dashed=0;verticalLabelPosition=bottom;verticalAlign=top;align=center;html=1;fontSize=12;fontStyle=0;aspect=fixed;pointerEvents=1;shape=mxgraph.aws4.customer_gateway;" vertex="1" parent="1">
          <mxGeometry x="980" y="1382" width="35" height="35" as="geometry" />
        </mxCell>
        <mxCell id="IFTInrkQbc1uJJ71i_6O-140" value="VPN Gateway" style="sketch=0;outlineConnect=0;fontColor=#232F3E;gradientColor=none;fillColor=#8C4FFF;strokeColor=none;dashed=0;verticalLabelPosition=bottom;verticalAlign=top;align=center;html=1;fontSize=12;fontStyle=0;aspect=fixed;pointerEvents=1;shape=mxgraph.aws4.vpn_gateway;" vertex="1" parent="1">
          <mxGeometry x="850" y="1492" width="48" height="48" as="geometry" />
        </mxCell>
        <mxCell id="IFTInrkQbc1uJJ71i_6O-142" value="" style="endArrow=classic;startArrow=classic;html=1;rounded=0;" edge="1" parent="1" source="IFTInrkQbc1uJJ71i_6O-140" target="IFTInrkQbc1uJJ71i_6O-139">
          <mxGeometry width="50" height="50" relative="1" as="geometry">
            <mxPoint x="930" y="1472.5" as="sourcePoint" />
            <mxPoint x="980" y="1422.5" as="targetPoint" />
          </mxGeometry>
        </mxCell>
        <mxCell id="IFTInrkQbc1uJJ71i_6O-143" value="S2S VPN&amp;nbsp;&lt;div&gt;Connection&lt;/div&gt;" style="edgeLabel;html=1;align=center;verticalAlign=middle;resizable=0;points=[];" vertex="1" connectable="0" parent="IFTInrkQbc1uJJ71i_6O-142">
          <mxGeometry x="0.0246" relative="1" as="geometry">
            <mxPoint as="offset" />
          </mxGeometry>
        </mxCell>
        <mxCell id="IFTInrkQbc1uJJ71i_6O-144" value="" style="sketch=0;outlineConnect=0;fontColor=#232F3E;gradientColor=none;fillColor=#8C4FFF;strokeColor=none;dashed=0;verticalLabelPosition=bottom;verticalAlign=top;align=center;html=1;fontSize=12;fontStyle=0;aspect=fixed;pointerEvents=1;shape=mxgraph.aws4.internet_gateway;" vertex="1" parent="1">
          <mxGeometry x="120" y="1224" width="48" height="48" as="geometry" />
        </mxCell>
        <mxCell id="IFTInrkQbc1uJJ71i_6O-146" value="" style="endArrow=classic;startArrow=classic;html=1;rounded=0;" edge="1" parent="1" source="IFTInrkQbc1uJJ71i_6O-144" target="IFTInrkQbc1uJJ71i_6O-116">
          <mxGeometry width="50" height="50" relative="1" as="geometry">
            <mxPoint x="410" y="1440" as="sourcePoint" />
            <mxPoint x="460" y="1390" as="targetPoint" />
          </mxGeometry>
        </mxCell>
        <mxCell id="IFTInrkQbc1uJJ71i_6O-147" value="DynamoDB&lt;div&gt;&lt;br&gt;&lt;/div&gt;" style="sketch=0;points=[[0,0,0],[0.25,0,0],[0.5,0,0],[0.75,0,0],[1,0,0],[0,1,0],[0.25,1,0],[0.5,1,0],[0.75,1,0],[1,1,0],[0,0.25,0],[0,0.5,0],[0,0.75,0],[1,0.25,0],[1,0.5,0],[1,0.75,0]];outlineConnect=0;fontColor=#232F3E;fillColor=#C925D1;strokeColor=#ffffff;dashed=0;verticalLabelPosition=bottom;verticalAlign=top;align=center;html=1;fontSize=12;fontStyle=0;aspect=fixed;shape=mxgraph.aws4.resourceIcon;resIcon=mxgraph.aws4.dynamodb;" vertex="1" parent="1">
          <mxGeometry x="45" y="1310" width="48" height="48" as="geometry" />
        </mxCell>
        <mxCell id="IFTInrkQbc1uJJ71i_6O-149" style="edgeStyle=orthogonalEdgeStyle;rounded=0;orthogonalLoop=1;jettySize=auto;html=1;" edge="1" parent="1" source="IFTInrkQbc1uJJ71i_6O-148" target="IFTInrkQbc1uJJ71i_6O-144">
          <mxGeometry relative="1" as="geometry">
            <mxPoint x="110" y="1250" as="targetPoint" />
            <Array as="points">
              <mxPoint x="69" y="1250" />
              <mxPoint x="110" y="1250" />
              <mxPoint x="110" y="1248" />
            </Array>
          </mxGeometry>
        </mxCell>
        <mxCell id="IFTInrkQbc1uJJ71i_6O-148" value="Internet" style="outlineConnect=0;dashed=0;verticalLabelPosition=bottom;verticalAlign=top;align=center;html=1;shape=mxgraph.aws3.internet_gateway;fillColor=#F58534;gradientColor=none;" vertex="1" parent="1">
          <mxGeometry x="40" y="1150" width="58" height="55" as="geometry" />
        </mxCell>
        <mxCell id="IFTInrkQbc1uJJ71i_6O-150" style="edgeStyle=orthogonalEdgeStyle;rounded=0;orthogonalLoop=1;jettySize=auto;html=1;entryX=0.5;entryY=0;entryDx=0;entryDy=0;entryPerimeter=0;" edge="1" parent="1" source="IFTInrkQbc1uJJ71i_6O-148" target="IFTInrkQbc1uJJ71i_6O-147">
          <mxGeometry relative="1" as="geometry" />
        </mxCell>
        <mxCell id="IFTInrkQbc1uJJ71i_6O-151" style="edgeStyle=orthogonalEdgeStyle;rounded=0;orthogonalLoop=1;jettySize=auto;html=1;entryX=0.5;entryY=1;entryDx=0;entryDy=0;entryPerimeter=0;" edge="1" parent="1" source="IFTInrkQbc1uJJ71i_6O-147" target="IFTInrkQbc1uJJ71i_6O-148">
          <mxGeometry relative="1" as="geometry" />
        </mxCell>
        <mxCell id="IFTInrkQbc1uJJ71i_6O-152" value="VPC Peering&amp;nbsp;&lt;div&gt;Connection&lt;/div&gt;" style="sketch=0;outlineConnect=0;fontColor=#232F3E;gradientColor=none;fillColor=#8C4FFF;strokeColor=none;dashed=0;verticalLabelPosition=bottom;verticalAlign=top;align=center;html=1;fontSize=12;fontStyle=0;aspect=fixed;pointerEvents=1;shape=mxgraph.aws4.peering;" vertex="1" parent="1">
          <mxGeometry x="112" y="1442" width="48" height="48" as="geometry" />
        </mxCell>
        <mxCell id="IFTInrkQbc1uJJ71i_6O-153" value="" style="outlineConnect=0;dashed=0;verticalLabelPosition=bottom;verticalAlign=top;align=center;html=1;shape=mxgraph.aws3.virtual_private_cloud;fillColor=#F58534;gradientColor=none;" vertex="1" parent="1">
          <mxGeometry x="-40" y="1442" width="59.5" height="40" as="geometry" />
        </mxCell>
        <mxCell id="IFTInrkQbc1uJJ71i_6O-154" value="" style="outlineConnect=0;dashed=0;verticalLabelPosition=bottom;verticalAlign=top;align=center;html=1;shape=mxgraph.aws3.virtual_private_cloud;fillColor=#F58534;gradientColor=none;" vertex="1" parent="1">
          <mxGeometry x="-30" y="1560" width="59.5" height="40" as="geometry" />
        </mxCell>
        <mxCell id="IFTInrkQbc1uJJ71i_6O-155" value="" style="endArrow=classic;html=1;rounded=0;exitX=0.75;exitY=0.24;exitDx=0;exitDy=0;exitPerimeter=0;" edge="1" parent="1" source="IFTInrkQbc1uJJ71i_6O-154" target="IFTInrkQbc1uJJ71i_6O-152">
          <mxGeometry width="50" height="50" relative="1" as="geometry">
            <mxPoint x="29.5" y="1560" as="sourcePoint" />
            <mxPoint x="79.5" y="1510" as="targetPoint" />
          </mxGeometry>
        </mxCell>
        <mxCell id="IFTInrkQbc1uJJ71i_6O-156" value="" style="endArrow=classic;html=1;rounded=0;" edge="1" parent="1" source="IFTInrkQbc1uJJ71i_6O-153" target="IFTInrkQbc1uJJ71i_6O-152">
          <mxGeometry width="50" height="50" relative="1" as="geometry">
            <mxPoint x="39.5" y="1570" as="sourcePoint" />
            <mxPoint x="122" y="1497" as="targetPoint" />
          </mxGeometry>
        </mxCell>
        <mxCell id="IFTInrkQbc1uJJ71i_6O-157" value="" style="endArrow=classic;html=1;rounded=0;entryX=0.409;entryY=0.697;entryDx=0;entryDy=0;entryPerimeter=0;" edge="1" parent="1" source="IFTInrkQbc1uJJ71i_6O-116" target="IFTInrkQbc1uJJ71i_6O-128">
          <mxGeometry width="50" height="50" relative="1" as="geometry">
            <mxPoint x="30" y="1473" as="sourcePoint" />
            <mxPoint x="122" y="1475" as="targetPoint" />
          </mxGeometry>
        </mxCell>
        <mxCell id="IFTInrkQbc1uJJ71i_6O-158" value="" style="endArrow=classic;html=1;rounded=0;exitX=0;exitY=0.5;exitDx=0;exitDy=0;exitPerimeter=0;" edge="1" parent="1" source="IFTInrkQbc1uJJ71i_6O-133">
          <mxGeometry width="50" height="50" relative="1" as="geometry">
            <mxPoint x="305" y="1310" as="sourcePoint" />
            <mxPoint x="440" y="1312" as="targetPoint" />
          </mxGeometry>
        </mxCell>
        <mxCell id="IFTInrkQbc1uJJ71i_6O-159" value="" style="endArrow=classic;html=1;rounded=0;exitX=0.364;exitY=0.303;exitDx=0;exitDy=0;exitPerimeter=0;" edge="1" parent="1" source="IFTInrkQbc1uJJ71i_6O-128" target="IFTInrkQbc1uJJ71i_6O-116">
          <mxGeometry width="50" height="50" relative="1" as="geometry">
            <mxPoint x="691" y="1335" as="sourcePoint" />
            <mxPoint x="450" y="1322" as="targetPoint" />
          </mxGeometry>
        </mxCell>
        <mxCell id="IFTInrkQbc1uJJ71i_6O-160" value="CloudWatch&lt;div&gt;&lt;br&gt;&lt;/div&gt;" style="sketch=0;points=[[0,0,0],[0.25,0,0],[0.5,0,0],[0.75,0,0],[1,0,0],[0,1,0],[0.25,1,0],[0.5,1,0],[0.75,1,0],[1,1,0],[0,0.25,0],[0,0.5,0],[0,0.75,0],[1,0.25,0],[1,0.5,0],[1,0.75,0]];points=[[0,0,0],[0.25,0,0],[0.5,0,0],[0.75,0,0],[1,0,0],[0,1,0],[0.25,1,0],[0.5,1,0],[0.75,1,0],[1,1,0],[0,0.25,0],[0,0.5,0],[0,0.75,0],[1,0.25,0],[1,0.5,0],[1,0.75,0]];outlineConnect=0;fontColor=#232F3E;fillColor=#E7157B;strokeColor=#ffffff;dashed=0;verticalLabelPosition=bottom;verticalAlign=top;align=center;html=1;fontSize=12;fontStyle=0;aspect=fixed;shape=mxgraph.aws4.resourceIcon;resIcon=mxgraph.aws4.cloudwatch_2;" vertex="1" parent="1">
          <mxGeometry x="883" y="1202" width="48" height="48" as="geometry" />
        </mxCell>
        <mxCell id="IFTInrkQbc1uJJ71i_6O-161" value="S3&lt;div&gt;&lt;br&gt;&lt;/div&gt;" style="sketch=0;outlineConnect=0;fontColor=#232F3E;gradientColor=none;fillColor=#7AA116;strokeColor=none;dashed=0;verticalLabelPosition=bottom;verticalAlign=top;align=center;html=1;fontSize=12;fontStyle=0;aspect=fixed;pointerEvents=1;shape=mxgraph.aws4.bucket;" vertex="1" parent="1">
          <mxGeometry x="910" y="1343.2" width="45" height="46.8" as="geometry" />
        </mxCell>
        <mxCell id="IFTInrkQbc1uJJ71i_6O-163" value="VPC Endpoint&lt;div&gt;(Interface)&lt;/div&gt;" style="sketch=0;outlineConnect=0;fontColor=#232F3E;gradientColor=none;fillColor=#8C4FFF;strokeColor=none;dashed=0;verticalLabelPosition=bottom;verticalAlign=top;align=center;html=1;fontSize=12;fontStyle=0;aspect=fixed;pointerEvents=1;shape=mxgraph.aws4.endpoints;" vertex="1" parent="1">
          <mxGeometry x="820" y="1262" width="48" height="48" as="geometry" />
        </mxCell>
        <mxCell id="IFTInrkQbc1uJJ71i_6O-164" style="edgeStyle=orthogonalEdgeStyle;rounded=0;orthogonalLoop=1;jettySize=auto;html=1;entryX=0.5;entryY=1;entryDx=0;entryDy=0;entryPerimeter=0;" edge="1" parent="1" source="IFTInrkQbc1uJJ71i_6O-163" target="IFTInrkQbc1uJJ71i_6O-160">
          <mxGeometry relative="1" as="geometry" />
        </mxCell>
        <mxCell id="IFTInrkQbc1uJJ71i_6O-166" value="" style="endArrow=classic;html=1;rounded=0;" edge="1" parent="1" source="IFTInrkQbc1uJJ71i_6O-133" target="IFTInrkQbc1uJJ71i_6O-163">
          <mxGeometry width="50" height="50" relative="1" as="geometry">
            <mxPoint x="730" y="1338" as="sourcePoint" />
            <mxPoint x="830" y="1370" as="targetPoint" />
          </mxGeometry>
        </mxCell>
      </root>
    </mxGraphModel>
  </diagram>
</mxfile>
